<svg xmlns="http://www.w3.org/2000/svg" version="1.1" xmlns:xlink="http://www.w3.org/1999/xlink" xmlns:svgjs="http://svgjs.com/svgjs" width="30" height="30" x="0" y="0" viewBox="0 0 496.88 496.88" style="enable-background:new 0 0 512 512" xml:space="preserve" class=""><g><link type="text/css" rel="stylesheet" id="dark-mode-custom-link"></link><link type="text/css" rel="stylesheet" id="dark-mode-general-link"></link><style lang="en" type="text/css" id="dark-mode-custom-style"></style><style lang="en" type="text/css" id="dark-mode-native-style"></style><g xmlns="http://www.w3.org/2000/svg"><path d="m429.5 267.13-199.75 229.75c124.314 0 225.568-98.732 229.624-222.06.139-4.214-3.283-7.69-7.499-7.69z" fill="#793BCC" data-original="#793bcc"></path><path d="m222.058 37.506c-92.421 3.041-171.018 60.673-204.612 141.684v87.939h212.304v-222.123c0-4.217-3.477-7.639-7.692-7.5z" fill="#14CFFF" data-original="#14cfff" class=""></path><path d="m17.446 179.19c-11.233 27.09-17.446 56.787-17.446 87.94 0 63.444 25.716 120.881 67.292 162.458h162.458v-162.458z" fill="#3B88F5" data-original="#3b88f5"></path><path d="m229.75 267.13-162.458 162.457c41.577 41.577 99.014 67.292 162.458 67.292 110.319 0 199.75-102.863 199.75-229.75h-199.75z" fill="#9255E3" data-original="#9255e3" class=""></path><path d="m271.191.004c-.24-.008-.478-.001-.713.014l196.398 233.362h22.5c4.217 0 7.637-3.476 7.5-7.69-3.975-122.846-102.84-221.711-225.685-225.686z" fill="#61CE5B" data-original="#61ce5b" class=""></path><path d="m270.478.018c-3.886.245-6.978 3.51-6.978 7.486v218.376c0 4.142 3.358 7.5 7.5 7.5h195.876v-7.69c-3.461-122.74-89.472-221.537-196.398-225.672z" fill="#94E368" data-original="#94e368" class=""></path></g></g></svg>